<svg width="800" height="400" xmlns="http://www.w3.org/2000/svg">
      <defs>
        <linearGradient id="areaGradient" x1="0%" y1="0%" x2="0%" y2="100%">
          <stop offset="0%" style="stop-color:#10b981;stop-opacity:0.4" />
          <stop offset="100%" style="stop-color:#10b981;stop-opacity:0.05" />
        </linearGradient>
      </defs>
      
      <!-- Background -->
      <rect width="800" height="400" fill="#ffffff" stroke="#e5e7eb" stroke-width="1" rx="12"/>
      
      <!-- Header section -->
      <rect x="0" y="0" width="800" height="55" fill="#f8fafc" rx="12"/>
      <rect x="0" y="43" width="800" height="12" fill="#f8fafc"/>
      
      <!-- Grid lines -->
      <line x1="60" y1="60" x2="740" y2="60" stroke="#f1f5f9" stroke-width="1"/><line x1="60" y1="130" x2="740" y2="130" stroke="#f1f5f9" stroke-width="1"/><line x1="60" y1="200" x2="740" y2="200" stroke="#f1f5f9" stroke-width="1"/><line x1="60" y1="270" x2="740" y2="270" stroke="#f1f5f9" stroke-width="1"/><line x1="60" y1="340" x2="740" y2="340" stroke="#f1f5f9" stroke-width="1"/>
      <line x1="60" y1="60" x2="60" y2="340" stroke="#f1f5f9" stroke-width="1"/><line x1="173.33333333333331" y1="60" x2="173.33333333333331" y2="340" stroke="#f1f5f9" stroke-width="1"/><line x1="286.66666666666663" y1="60" x2="286.66666666666663" y2="340" stroke="#f1f5f9" stroke-width="1"/><line x1="400" y1="60" x2="400" y2="340" stroke="#f1f5f9" stroke-width="1"/><line x1="513.3333333333333" y1="60" x2="513.3333333333333" y2="340" stroke="#f1f5f9" stroke-width="1"/><line x1="626.6666666666667" y1="60" x2="626.6666666666667" y2="340" stroke="#f1f5f9" stroke-width="1"/><line x1="740" y1="60" x2="740" y2="340" stroke="#f1f5f9" stroke-width="1"/>
      
      <!-- Area fill -->
      <path d="M 60.00,271.55 L 63.45,273.45 L 66.90,281.80 L 70.36,285.39 L 73.81,287.79 L 77.26,290.64 L 80.71,279.95 L 84.16,271.26 L 87.61,269.51 L 91.07,263.25 L 94.52,257.42 L 97.97,251.85 L 101.42,243.64 L 104.87,258.71 L 108.32,259.17 L 111.78,254.76 L 115.23,265.61 L 118.68,258.46 L 122.13,262.48 L 125.58,271.47 L 129.04,276.02 L 132.49,281.58 L 135.94,287.21 L 139.39,283.18 L 142.84,276.57 L 146.29,270.19 L 149.75,269.54 L 153.20,267.46 L 156.65,260.12 L 160.10,263.37 L 163.55,255.83 L 167.01,248.89 L 170.46,248.82 L 173.91,252.63 L 177.36,249.29 L 180.81,244.25 L 184.26,243.53 L 187.72,251.39 L 191.17,251.40 L 194.62,258.09 L 198.07,264.27 L 201.52,266.72 L 204.97,267.14 L 208.43,269.56 L 211.88,282.96 L 215.33,289.71 L 218.78,295.88 L 222.23,301.16 L 225.69,302.19 L 229.14,305.69 L 232.59,305.28 L 236.04,310.06 L 239.49,308.41 L 242.94,306.11 L 246.40,313.51 L 249.85,322.22 L 253.30,325.35 L 256.75,320.34 L 260.20,306.90 L 263.65,296.93 L 267.11,290.18 L 270.56,292.29 L 274.01,295.50 L 277.46,312.07 L 280.91,314.49 L 284.37,312.99 L 287.82,311.54 L 291.27,300.59 L 294.72,302.81 L 298.17,303.93 L 301.62,302.73 L 305.08,280.41 L 308.53,284.84 L 311.98,289.05 L 315.43,292.59 L 318.88,294.53 L 322.34,310.50 L 325.79,312.81 L 329.24,314.77 L 332.69,312.61 L 336.14,307.38 L 339.59,295.52 L 343.05,299.93 L 346.50,311.47 L 349.95,320.43 L 353.40,327.87 L 356.85,335.57 L 360.30,340.00 L 363.76,336.24 L 367.21,327.16 L 370.66,328.30 L 374.11,322.10 L 377.56,323.62 L 381.02,325.16 L 384.47,313.75 L 387.92,308.99 L 391.37,309.57 L 394.82,310.82 L 398.27,312.34 L 401.73,309.78 L 405.18,308.67 L 408.63,309.94 L 412.08,311.67 L 415.53,314.07 L 418.98,313.99 L 422.44,305.14 L 425.89,291.25 L 429.34,281.53 L 432.79,282.49 L 436.24,280.37 L 439.70,276.01 L 443.15,270.14 L 446.60,269.88 L 450.05,263.21 L 453.50,262.48 L 456.95,254.61 L 460.41,257.48 L 463.86,267.25 L 467.31,266.78 L 470.76,261.63 L 474.21,258.29 L 477.66,252.82 L 481.12,246.10 L 484.57,226.02 L 488.02,227.96 L 491.47,230.29 L 494.92,227.56 L 498.38,226.58 L 501.83,222.82 L 505.28,220.15 L 508.73,210.64 L 512.18,210.27 L 515.63,210.81 L 519.09,206.90 L 522.54,210.84 L 525.99,208.77 L 529.44,206.22 L 532.89,211.28 L 536.35,219.43 L 539.80,214.22 L 543.25,215.00 L 546.70,215.03 L 550.15,219.60 L 553.60,236.43 L 557.06,232.76 L 560.51,221.99 L 563.96,215.19 L 567.41,206.90 L 570.86,209.17 L 574.31,226.25 L 577.77,176.62 L 581.22,139.18 L 584.67,94.75 L 588.12,95.87 L 591.57,106.02 L 595.03,119.43 L 598.48,110.01 L 601.93,123.37 L 605.38,137.18 L 608.83,173.95 L 612.28,168.26 L 615.74,196.28 L 619.19,208.74 L 622.64,208.90 L 626.09,184.09 L 629.54,164.28 L 632.99,163.21 L 636.45,174.16 L 639.90,164.51 L 643.35,148.47 L 646.80,133.06 L 650.25,126.07 L 653.71,128.89 L 657.16,144.19 L 660.61,147.00 L 664.06,143.21 L 667.51,139.28 L 670.96,135.18 L 674.42,127.52 L 677.87,126.72 L 681.32,114.91 L 684.77,111.15 L 688.22,123.09 L 691.68,131.76 L 695.13,113.52 L 698.58,119.80 L 702.03,115.38 L 705.48,111.05 L 708.93,121.83 L 712.39,116.14 L 715.84,130.09 L 719.29,131.69 L 722.74,127.78 L 726.19,108.09 L 729.64,85.84 L 733.10,76.23 L 736.55,60.00 L 740.00,61.69 L 740.00,340.00 L 60,340.00 Z" fill="url(#areaGradient)" stroke="none"/>
      
      <!-- Price line -->
      <path d="M 60.00,271.55 L 63.45,273.45 L 66.90,281.80 L 70.36,285.39 L 73.81,287.79 L 77.26,290.64 L 80.71,279.95 L 84.16,271.26 L 87.61,269.51 L 91.07,263.25 L 94.52,257.42 L 97.97,251.85 L 101.42,243.64 L 104.87,258.71 L 108.32,259.17 L 111.78,254.76 L 115.23,265.61 L 118.68,258.46 L 122.13,262.48 L 125.58,271.47 L 129.04,276.02 L 132.49,281.58 L 135.94,287.21 L 139.39,283.18 L 142.84,276.57 L 146.29,270.19 L 149.75,269.54 L 153.20,267.46 L 156.65,260.12 L 160.10,263.37 L 163.55,255.83 L 167.01,248.89 L 170.46,248.82 L 173.91,252.63 L 177.36,249.29 L 180.81,244.25 L 184.26,243.53 L 187.72,251.39 L 191.17,251.40 L 194.62,258.09 L 198.07,264.27 L 201.52,266.72 L 204.97,267.14 L 208.43,269.56 L 211.88,282.96 L 215.33,289.71 L 218.78,295.88 L 222.23,301.16 L 225.69,302.19 L 229.14,305.69 L 232.59,305.28 L 236.04,310.06 L 239.49,308.41 L 242.94,306.11 L 246.40,313.51 L 249.85,322.22 L 253.30,325.35 L 256.75,320.34 L 260.20,306.90 L 263.65,296.93 L 267.11,290.18 L 270.56,292.29 L 274.01,295.50 L 277.46,312.07 L 280.91,314.49 L 284.37,312.99 L 287.82,311.54 L 291.27,300.59 L 294.72,302.81 L 298.17,303.93 L 301.62,302.73 L 305.08,280.41 L 308.53,284.84 L 311.98,289.05 L 315.43,292.59 L 318.88,294.53 L 322.34,310.50 L 325.79,312.81 L 329.24,314.77 L 332.69,312.61 L 336.14,307.38 L 339.59,295.52 L 343.05,299.93 L 346.50,311.47 L 349.95,320.43 L 353.40,327.87 L 356.85,335.57 L 360.30,340.00 L 363.76,336.24 L 367.21,327.16 L 370.66,328.30 L 374.11,322.10 L 377.56,323.62 L 381.02,325.16 L 384.47,313.75 L 387.92,308.99 L 391.37,309.57 L 394.82,310.82 L 398.27,312.34 L 401.73,309.78 L 405.18,308.67 L 408.63,309.94 L 412.08,311.67 L 415.53,314.07 L 418.98,313.99 L 422.44,305.14 L 425.89,291.25 L 429.34,281.53 L 432.79,282.49 L 436.24,280.37 L 439.70,276.01 L 443.15,270.14 L 446.60,269.88 L 450.05,263.21 L 453.50,262.48 L 456.95,254.61 L 460.41,257.48 L 463.86,267.25 L 467.31,266.78 L 470.76,261.63 L 474.21,258.29 L 477.66,252.82 L 481.12,246.10 L 484.57,226.02 L 488.02,227.96 L 491.47,230.29 L 494.92,227.56 L 498.38,226.58 L 501.83,222.82 L 505.28,220.15 L 508.73,210.64 L 512.18,210.27 L 515.63,210.81 L 519.09,206.90 L 522.54,210.84 L 525.99,208.77 L 529.44,206.22 L 532.89,211.28 L 536.35,219.43 L 539.80,214.22 L 543.25,215.00 L 546.70,215.03 L 550.15,219.60 L 553.60,236.43 L 557.06,232.76 L 560.51,221.99 L 563.96,215.19 L 567.41,206.90 L 570.86,209.17 L 574.31,226.25 L 577.77,176.62 L 581.22,139.18 L 584.67,94.75 L 588.12,95.87 L 591.57,106.02 L 595.03,119.43 L 598.48,110.01 L 601.93,123.37 L 605.38,137.18 L 608.83,173.95 L 612.28,168.26 L 615.74,196.28 L 619.19,208.74 L 622.64,208.90 L 626.09,184.09 L 629.54,164.28 L 632.99,163.21 L 636.45,174.16 L 639.90,164.51 L 643.35,148.47 L 646.80,133.06 L 650.25,126.07 L 653.71,128.89 L 657.16,144.19 L 660.61,147.00 L 664.06,143.21 L 667.51,139.28 L 670.96,135.18 L 674.42,127.52 L 677.87,126.72 L 681.32,114.91 L 684.77,111.15 L 688.22,123.09 L 691.68,131.76 L 695.13,113.52 L 698.58,119.80 L 702.03,115.38 L 705.48,111.05 L 708.93,121.83 L 712.39,116.14 L 715.84,130.09 L 719.29,131.69 L 722.74,127.78 L 726.19,108.09 L 729.64,85.84 L 733.10,76.23 L 736.55,60.00 L 740.00,61.69" fill="none" stroke="#10b981" stroke-width="3" stroke-linecap="round" stroke-linejoin="round"/>
      
      <!-- Data points -->
      <circle cx="60" cy="271.5461685147253" r="4" fill="#10b981" stroke="white" stroke-width="2"/><circle cx="115.22842639593908" cy="265.61303845588236" r="4" fill="#10b981" stroke="white" stroke-width="2"/><circle cx="170.45685279187816" cy="248.82477563879783" r="4" fill="#10b981" stroke="white" stroke-width="2"/><circle cx="225.68527918781726" cy="302.1896772351644" r="4" fill="#10b981" stroke="white" stroke-width="2"/><circle cx="280.9137055837563" cy="314.4861111698958" r="4" fill="#10b981" stroke="white" stroke-width="2"/><circle cx="336.1421319796954" cy="307.37582615267127" r="4" fill="#10b981" stroke="white" stroke-width="2"/><circle cx="391.3705583756345" cy="309.56893779956977" r="4" fill="#10b981" stroke="white" stroke-width="2"/><circle cx="446.5989847715736" cy="269.87615415038806" r="4" fill="#10b981" stroke="white" stroke-width="2"/><circle cx="501.82741116751265" cy="222.81592763428594" r="4" fill="#10b981" stroke="white" stroke-width="2"/><circle cx="557.0558375634517" cy="232.75649796570661" r="4" fill="#10b981" stroke="white" stroke-width="2"/><circle cx="612.2842639593908" cy="168.26138694766667" r="4" fill="#10b981" stroke="white" stroke-width="2"/><circle cx="667.5126903553299" cy="139.28172876461187" r="4" fill="#10b981" stroke="white" stroke-width="2"/><circle cx="722.741116751269" cy="127.78298356995512" r="4" fill="#10b981" stroke="white" stroke-width="2"/><circle cx="740" cy="61.69464374330238" r="4" fill="#10b981" stroke="white" stroke-width="2"/>
      
      <!-- Chart axes -->
      <line x1="60" y1="60" x2="60" y2="340" stroke="#64748b" stroke-width="1"/>
      <line x1="60" y1="340" x2="740" y2="340" stroke="#64748b" stroke-width="1"/>
      
      <!-- Title -->
      <text x="24" y="28" font-family="system-ui, -apple-system, sans-serif" font-size="20" font-weight="bold" fill="#0f172a">
        Bitcoin (BTC) Live Chart
      </text>
      
      <!-- Subtitle -->
      <text x="24" y="45" font-family="system-ui, -apple-system, sans-serif" font-size="12" fill="#64748b">
        24-Hour Area Chart • 198 data points • Live data from CoinGecko
      </text>
      
      <!-- Current price -->
      <text x="776" y="28" text-anchor="end" font-family="system-ui, -apple-system, sans-serif" font-size="24" font-weight="bold" fill="#0f172a">
        $122,432
      </text>
      
      <!-- Price change -->
      <text x="776" y="45" text-anchor="end" font-family="system-ui, -apple-system, sans-serif" font-size="14" font-weight="600" fill="#10b981">
        ↗ +2.15% (24h)
      </text>
      
      <!-- Y-axis price labels -->
      <text x="48" y="65" text-anchor="end" font-family="system-ui, -apple-system, sans-serif" font-size="11" fill="#64748b">$122K</text><text x="48" y="135" text-anchor="end" font-family="system-ui, -apple-system, sans-serif" font-size="11" fill="#64748b">$122K</text><text x="48" y="205" text-anchor="end" font-family="system-ui, -apple-system, sans-serif" font-size="11" fill="#64748b">$121K</text><text x="48" y="275" text-anchor="end" font-family="system-ui, -apple-system, sans-serif" font-size="11" fill="#64748b">$120K</text><text x="48" y="345" text-anchor="end" font-family="system-ui, -apple-system, sans-serif" font-size="11" fill="#64748b">$119K</text>
      
      <!-- X-axis time labels -->
      <text x="60" y="360" text-anchor="middle" font-family="system-ui, -apple-system, sans-serif" font-size="11" fill="#64748b">9:37 PM</text><text x="173.33333333333331" y="360" text-anchor="middle" font-family="system-ui, -apple-system, sans-serif" font-size="11" fill="#64748b">1:33 AM</text><text x="286.66666666666663" y="360" text-anchor="middle" font-family="system-ui, -apple-system, sans-serif" font-size="11" fill="#64748b">5:29 AM</text><text x="400" y="360" text-anchor="middle" font-family="system-ui, -apple-system, sans-serif" font-size="11" fill="#64748b">9:19 AM</text><text x="513.3333333333333" y="360" text-anchor="middle" font-family="system-ui, -apple-system, sans-serif" font-size="11" fill="#64748b">1:16 PM</text><text x="626.6666666666667" y="360" text-anchor="middle" font-family="system-ui, -apple-system, sans-serif" font-size="11" fill="#64748b">5:42 PM</text><text x="740" y="360" text-anchor="middle" font-family="system-ui, -apple-system, sans-serif" font-size="11" fill="#64748b">9:36 PM</text>
      
      <!-- Chart info -->
      <text x="400" y="388" text-anchor="middle" font-family="system-ui, -apple-system, sans-serif" font-size="10" fill="#94a3b8">
        Generated 8/13/2025, 9:37:18 PM • Real-time cryptocurrency data
      </text>
    </svg>